<?xml version="1.0" encoding="UTF-8" standalone="no"?>
<svg width="20px" height="30px" viewBox="0 0 20 30" version="1.1" xmlns="http://www.w3.org/2000/svg" xmlns:xlink="http://www.w3.org/1999/xlink">
    <!-- Generator: Sketch 39.1 (31720) - http://www.bohemiancoding.com/sketch -->
    <title>Shape</title>
    <desc>Created with Sketch.</desc>
    <defs></defs>
    <g id="Page-1" stroke="none" stroke-width="1" fill="none" fill-rule="evenodd">
        <path d="M14.56,29.84 L0.183,15.463 C-0.06,15.22 -0.06,14.803 0.183,14.56 L14.56,0.183 C14.803,-0.06 15.22,-0.06 15.463,0.183 L19.839,4.558 C20.082,4.801 20.082,5.218 19.839,5.461 L10.253,15.011 L19.839,24.561 C20.082,24.804 20.082,25.221 19.839,25.464 L15.463,29.839 C15.324,29.944 15.185,30.013 15.012,30.013 C14.838,30.014 14.699,29.946 14.56,29.84 L14.56,29.84 Z" id="Shape" fill="#0099CC" transform="translate(10.011000, 15.006880) scale(-1, 1) translate(-10.011000, -15.006880) "></path>
    </g>
</svg>