<?xml version="1.0" standalone="no"?>
<!DOCTYPE svg PUBLIC "-//W3C//DTD SVG 20010904//EN"
 "http://www.w3.org/TR/2001/REC-SVG-20010904/DTD/svg10.dtd">
<svg version="1.0" xmlns="http://www.w3.org/2000/svg"
 width="700.000000pt" height="700.000000pt" viewBox="0 0 700.000000 700.000000"
 preserveAspectRatio="xMidYMid meet">
<metadata>
Created by potrace 1.11, written by Peter Selinger 2001-2013
</metadata>
<g transform="translate(0.000000,700.000000) scale(0.100000,-0.100000)"
fill="#000000" stroke="none">
<path d="M3418 6335 c-2 -2 -37 -6 -78 -9 -185 -15 -434 -118 -570 -236 -195
-170 -309 -349 -380 -600 -28 -99 -35 -304 -14 -405 35 -158 30 -153 551 -675
l473 -475 -155 -154 -154 -155 -443 442 c-244 243 -461 454 -482 469 -48 32
-158 70 -229 79 -363 45 -781 -142 -1019 -456 -92 -121 -181 -335 -204 -490
-15 -100 -9 -318 10 -405 66 -291 236 -526 471 -651 55 -30 171 -71 258 -91
78 -18 312 -24 422 -11 243 30 496 136 604 253 23 25 41 51 41 60 0 8 -68 82
-151 164 l-151 149 -60 -48 c-181 -146 -387 -160 -535 -37 -63 51 -86 103 -91
197 -12 233 124 429 315 455 100 13 213 -23 353 -114 69 -45 175 -145 568
-536 788 -783 761 -755 826 -855 142 -219 148 -395 21 -526 -159 -162 -453
-186 -564 -45 -123 156 -112 341 32 528 l49 65 -24 25 c-28 30 -180 182 -240
241 l-44 43 -46 -35 c-127 -97 -248 -389 -275 -661 -51 -518 180 -909 632
-1069 121 -42 204 -55 365 -56 358 -2 688 167 896 460 120 169 180 315 219
535 6 36 6 196 0 245 -9 68 -45 169 -78 218 -19 27 -246 261 -505 520 -260
258 -472 472 -472 475 0 3 68 74 151 157 l152 152 54 -54 c29 -29 248 -246
486 -483 319 -317 447 -438 486 -459 82 -44 166 -66 281 -72 393 -23 818 227
1007 591 169 327 158 745 -28 1053 -140 231 -315 359 -579 424 -115 29 -393
31 -520 5 -178 -37 -329 -93 -440 -165 -60 -40 -126 -104 -136 -134 -4 -14 28
-53 142 -168 82 -83 151 -150 155 -150 3 0 17 9 30 21 60 52 163 113 224 131
129 38 266 4 368 -91 89 -82 101 -276 25 -425 -29 -57 -100 -128 -154 -155
-58 -29 -156 -38 -221 -21 -65 18 -153 63 -224 115 -89 64 -1388 1358 -1436
1430 -97 145 -131 261 -108 365 26 119 138 222 284 260 48 13 153 15 198 4 37
-9 123 -52 123 -62 0 -4 11 -19 24 -33 57 -62 91 -169 84 -264 -7 -80 -55
-186 -123 -269 l-48 -59 149 -148 c82 -82 157 -149 167 -149 28 0 108 82 153
157 65 109 128 280 149 403 3 19 8 42 10 50 23 88 20 370 -5 455 -5 17 -11 41
-13 55 -8 63 -66 195 -123 282 -146 220 -432 385 -716 414 -73 7 -167 12 -170
9z"/>
</g>
</svg>
