<svg width="60" height="46" viewBox="0 0 60 46" xmlns="http://www.w3.org/2000/svg"><title>Fill 4726 + Fill 4727</title><desc>Created with Sketch.</desc><path d="M23.74.33c-.39-.39-1.03-.39-1.42 0l-22 22c-.39.39-.39 1.02 0 1.42l22 22c.2.19.45.29.71.29.26 0 .51-.1.71-.29.39-.4.39-1.03 0-1.42L2.44 23.04l21.3-21.29c.39-.4.39-1.03 0-1.42m36 22l-22-22c-.39-.39-1.03-.39-1.42 0-.39.39-.39 1.02 0 1.42l21.3 21.29-21.3 21.29c-.39.39-.39 1.02 0 1.42.2.19.45.29.71.29.26 0 .51-.1.71-.29l22-22c.39-.4.39-1.03 0-1.42" fill="#0A0B09"/></svg>