<svg width="37" height="47" viewBox="0 0 37 47" xmlns="http://www.w3.org/2000/svg"><title>design</title><desc>Created with Sketch.</desc><path d="M30.072 34.594h-1.54v-9.25h1.54c2.722 0 4.623 1.903 4.623 4.624 0 2.722-1.9 4.626-4.623 4.626zm-3.082 7.06c0 1.79-1.296 3.085-3.082 3.085H6.958c-1.73 0-3.082-1.36-3.082-3.09V21.61H26.99v20.04zM2.558 14.94l3.33-2.22 3.675 7.354H5.12L2.557 14.94h.002zm2.164-3.298l-2.55 1.703-.423-3.4 2.97 1.697zM13.12 1.575h7.705V4.66h-3.853c-.423 0-.77.346-.77.77 0 .423.347.77.77.77h3.853v1.54h-2.312c-.423 0-.77.348-.77.772 0 .423.347.772.77.772h2.312v1.54h-3.853c-.423 0-.77.348-.77.772 0 .424.347.77.77.77h3.853v3.084h-2.312c-.423 0-.77.347-.77.77 0 .424.347.77.77.77h2.312v3.084H13.12V1.572v.003zM27.996 12.15c.227.1.452.17.676.232l-2.913 7.692h-2.17l4.364-7.94c.01.01.02.017.03.017h.002zm-.71-4.545c.147-.35.47-.758.812-1.19.775-.978 1.852-2.334 1.53-4.12 2.175 1.232 2.963 3.628 2.722 5.648-.168 1.41-.936 3.06-2.547 3.06-.373 0-.778-.086-1.21-.27-.662-.278-1.14-.725-1.37-1.28-.233-.555-.21-1.194.066-1.85l-.01.002zm2.786 15.553h-1.54v-2.312c0-.425-.348-.772-.772-.772h-.354l2.867-7.576c1.888-.246 3.314-1.926 3.604-4.37.37-3.098-1.183-6.914-5.466-7.947-.3-.07-.62.05-.81.31-.18.26-.18.6-.01.87 1.16 1.767.3 2.854-.7 4.11-.41.516-.79 1-1.02 1.55-.433 1.025-.46 2.11-.07 3.045.197.46.495.886.87 1.24l-4.295 7.81V.8c0-.422-.345-.77-.77-.77h-9.25c-.424 0-.77.348-.77.77v19.27h-.294l-4.41-8.824-.034-.046c-.004-.016-.004-.023-.01-.04-.01-.006-.024-.014-.03-.03-.048-.053-.094-.107-.154-.146-.02-.015-.033-.03-.053-.048-.01 0-.014-.007-.02-.015l-5.4-3.08c-.25-.14-.566-.13-.81.03-.24.17-.373.45-.338.74l.77 6.165c.002.008.01.015.01.023.004.04.017.065.026.096.013.046.02.09.04.138l2.526 5.05H3.11c-.426 0-.77.347-.77.77v20.81c0 2.59 2.03 4.628 4.623 4.628h16.95c2.635 0 4.623-1.99 4.623-4.625v-6.17h1.54c3.572 0 6.164-2.597 6.164-6.166 0-3.576-2.592-6.166-6.164-6.166v-.007z" fill="#1B1A19"/></svg>