<svg width="60" height="53" viewBox="0 0 60 53" xmlns="http://www.w3.org/2000/svg"><title>Group</title><desc>Created with Sketch.</desc><g fill="#0A0B09"><path d="M58.62 37.13L30.03 49.94 1.44 37.13c-.51-.23-1.1 0-1.32.5-.23.5 0 1.09.5 1.32l29 13c.13.06.27.09.41.09.14 0 .28-.03.41-.09l29-13c.5-.23.73-.82.5-1.32-.22-.5-.82-.73-1.32-.5m0-8L30.03 41.94 1.44 29.13c-.51-.23-1.1 0-1.32.5-.23.5 0 1.09.5 1.32l29 13c.13.06.27.09.41.09.14 0 .28-.03.41-.09l29-13c.5-.23.73-.82.5-1.32-.22-.5-.82-.73-1.32-.5m0-8L30.03 33.94 1.44 21.13c-.51-.23-1.1 0-1.32.5-.23.5 0 1.09.5 1.32l29 13c.13.06.27.09.41.09.14 0 .28-.03.41-.09l29-13c.5-.23.73-.82.5-1.32-.22-.5-.82-.73-1.32-.5"/><path d="M30.03 2.13l26.55 11.91-26.55 11.9-26.56-11.9L30.03 2.13zM.62 14.95l29 13c.13.06.27.09.41.09.14 0 .28-.03.41-.09l29-13c.36-.16.59-.52.59-.91 0-.4-.23-.75-.59-.91l-29-13c-.26-.12-.56-.12-.82 0l-29 13c-.36.16-.59.51-.59.91 0 .39.23.75.59.91z"/></g></svg>