<?xml version="1.0" standalone="no"?>
<!DOCTYPE svg PUBLIC "-//W3C//DTD SVG 20010904//EN"
 "http://www.w3.org/TR/2001/REC-SVG-20010904/DTD/svg10.dtd">
<svg version="1.0" xmlns="http://www.w3.org/2000/svg"
 width="300.000000pt" height="300.000000pt" viewBox="0 0 300.000000 300.000000"
 preserveAspectRatio="xMidYMid meet">
<metadata>
Created by potrace 1.11, written by Peter Selinger 2001-2013
</metadata>
<g transform="translate(0.000000,300.000000) scale(0.100000,-0.100000)"
fill="#000000" stroke="none">
<path d="M1357 2543 c-100 -33 -187 -109 -234 -204 -38 -78 -43 -92 -50 -149
-3 -25 -6 -47 -6 -50 -1 -3 5 -29 12 -58 12 -49 25 -65 192 -233 98 -99 179
-182 179 -185 0 -3 -24 -30 -52 -59 l-52 -55 -33 32 c-18 17 -29 36 -26 41 3
6 1 7 -4 4 -13 -8 -46 27 -36 38 5 4 3 5 -3 2 -14 -8 -67 46 -57 58 5 4 3 5
-3 2 -7 -4 -30 13 -53 38 -23 25 -45 45 -49 46 -4 0 -22 18 -39 41 -18 22 -33
37 -33 34 0 -4 -12 2 -27 11 -37 25 -168 24 -245 -1 -32 -10 -58 -22 -58 -25
0 -3 -14 -12 -30 -19 -41 -18 -125 -103 -149 -150 -36 -71 -53 -137 -52 -207
0 -86 3 -99 36 -174 54 -119 165 -190 308 -197 43 -2 83 -7 89 -10 7 -4 8 -2
4 4 -7 11 16 16 76 16 9 0 15 3 12 7 -2 4 9 10 26 14 16 4 45 17 65 31 20 13
40 24 44 24 5 0 12 7 15 16 8 20 8 49 0 41 -3 -3 -27 18 -53 47 l-48 53 -42
-30 c-23 -16 -49 -26 -57 -23 -10 4 -12 2 -8 -6 5 -8 -8 -9 -47 -5 -74 9 -109
46 -107 114 1 92 53 153 130 153 39 -1 124 -42 120 -60 -1 -6 2 -9 7 -6 10 7
338 -314 334 -326 -2 -5 2 -8 7 -8 17 0 92 -79 85 -90 -3 -5 0 -7 8 -4 13 5
63 -49 65 -69 0 -5 8 -14 17 -20 8 -7 17 -28 19 -48 2 -20 6 -40 9 -46 3 -5
-3 -28 -14 -51 -26 -51 -84 -81 -148 -76 -47 4 -73 22 -94 64 -19 38 -14 80
17 144 l28 57 -53 54 c-43 44 -56 52 -71 44 -51 -27 -105 -169 -112 -290 -11
-210 134 -372 344 -384 66 -4 162 16 221 45 119 61 223 219 231 350 1 19 6 41
12 49 8 11 8 13 -1 7 -9 -5 -13 0 -13 14 0 41 -30 91 -97 162 -37 39 -77 78
-87 87 -45 38 -104 106 -100 113 3 5 1 7 -4 6 -11 -4 -92 68 -92 82 0 6 24 34
53 64 49 50 53 52 70 36 9 -9 17 -23 17 -30 0 -7 3 -11 6 -7 8 8 34 -18 34
-33 0 -6 5 -8 12 -4 8 5 9 2 5 -10 -4 -10 -3 -15 3 -11 5 3 66 -51 136 -120
70 -69 139 -132 154 -140 48 -25 129 -29 200 -11 201 52 335 227 326 429 -10
207 -156 350 -361 350 -120 1 -263 -47 -305 -101 l-20 -25 57 -61 c55 -58 59
-60 75 -44 30 30 96 59 101 45 4 -9 6 -9 6 0 1 12 32 10 75 -7 34 -13 60 -55
59 -98 -1 -73 -19 -107 -76 -142 -43 -27 -110 -8 -179 48 -46 38 -153 154
-150 164 1 5 -2 7 -7 4 -5 -4 -29 15 -53 40 -24 26 -48 52 -54 58 -240 232
-277 273 -270 293 3 8 2 12 -3 9 -20 -13 -28 82 -9 117 36 69 166 96 213 44
28 -29 45 -80 39 -114 -3 -16 -18 -49 -34 -75 -24 -40 -26 -49 -14 -59 7 -6
11 -16 7 -23 -3 -6 -3 -8 2 -4 11 11 36 -12 28 -26 -3 -6 -2 -8 2 -3 5 4 21
-4 36 -19 15 -14 30 -27 33 -27 12 -4 66 82 85 133 67 185 40 354 -74 459
-104 96 -250 124 -398 74z"/>
<path d="M1146 1838 c3 -5 10 -6 15 -3 13 9 11 12 -6 12 -8 0 -12 -4 -9 -9z"/>
<path d="M1026 1118 c3 -5 10 -6 15 -3 13 9 11 12 -6 12 -8 0 -12 -4 -9 -9z"/>
<path d="M990 1080 c0 -5 5 -10 11 -10 5 0 7 5 4 10 -3 6 -8 10 -11 10 -2 0
-4 -4 -4 -10z"/>
</g>
</svg>
