<?xml version="1.0" encoding="UTF-8" standalone="no"?>
<svg width="96px" height="96px" viewBox="0 0 96 96" version="1.1" xmlns="http://www.w3.org/2000/svg" xmlns:xlink="http://www.w3.org/1999/xlink">
    <!-- Generator: Sketch 39.1 (31720) - http://www.bohemiancoding.com/sketch -->
    <title>icons</title>
    <desc>Created with Sketch.</desc>
    <defs></defs>
    <g id="Assets" stroke="none" stroke-width="1" fill="none" fill-rule="evenodd">
        <g id="icons" fill="#595959">
            <path d="M53.9040894,48.749009 L69.8059412,64.6256284 C73.3199088,68.1340201 82.2490174,68.304641 89.4158021,61.9916687 C96.4853068,55.4645622 97.4111659,44.6353341 91.5519524,37.0063749 C83.092797,26.4065532 65.3734291,32.8474911 64.1558234,37.0063749 L69.3466689,42.2529669 C75.5201438,36.4411934 79.7817638,40.9519827 79.7817638,40.9519827 C81.9179141,42.4555789 81.7363414,47.3502653 79.418618,49.7816127 C74.4413877,55.1135149 67.3066451,46.8810579 67.3066451,46.8810579 L58.6552361,38.2433763 L58.6417889,38.2568772 L48.4230755,28.1020983 C48.4230755,28.1020983 40.177535,20.9786768 45.5179109,16.009344 C47.9531226,13.6952984 52.8555877,13.5140137 54.3615739,15.6467746 C54.3615739,15.6467746 58.9115741,19.9122965 53.1119257,26.0226564 L58.3348134,31.1946014 C62.5003069,29.9789279 68.951481,12.2876762 58.3348134,3.84194311 C50.69373,-2.00797318 39.8472912,-1.08358324 33.3098115,5.97470399 C26.9974867,13.1301168 27.1683788,22.055721 30.6823464,25.5534491 L46.0284371,40.8827894 L40.7506112,46.1522407 L26.0362193,31.4611967 C22.5115709,27.952805 13.2727204,28.0914344 6.10593576,34.3937427 C-0.69770332,40.3868009 -2.29981615,51.9250373 3.7775318,59.5389937 C12.2366875,70.1388154 29.8812898,63.8045156 31.0988956,59.6456318 L25.8653272,54.4416953 C19.7452561,60.2321409 15.4515939,55.7106879 15.4515939,55.7106879 C13.3154434,54.2070915 13.7960773,49.0351464 16.1138005,46.5718075 C21.0910308,41.2399053 28.5248345,49.1737758 28.5248345,49.1737758 L39.3123942,59.9442183 L39.339096,59.9175588 L46.7889206,67.3555624 C46.7889206,67.3555624 54.7354,74.7775704 49.3950239,79.7469031 C46.9277702,82.0609488 41.7476056,82.5408198 40.2416194,80.4080591 C40.2416194,80.4080591 35.7129804,76.1425372 41.5019482,70.0854963 L36.2897411,64.8602323 C32.1242479,66.0759058 25.779881,83.6925107 36.3965486,92.1382439 C44.0226056,98.1846211 55.6219024,96.5850505 61.581762,89.7815431 C67.8940868,82.6261303 68.0436173,73.4019394 64.5296498,69.893548 L48.627798,54.0169283 L53.9040894,48.749009 L53.9040894,48.749009 Z" id="logo"></path>
        </g>
    </g>
</svg>