<svg xmlns="http://www.w3.org/2000/svg"><symbol id="arrow-left" viewBox="0 0 20 30">
    <path d="M14.56 29.84L.183 15.463a.65.65 0 0 1 0-.903L14.56.183a.65.65 0 0 1 .903 0l4.376 4.375a.65.65 0 0 1 0 .903l-9.586 9.55 9.586 9.55a.65.65 0 0 1 0 .903l-4.376 4.375c-.139.105-.278.174-.451.174-.174.001-.313-.067-.452-.173z"/>
</symbol><symbol id="arrow-right" viewBox="0 0 20 30">
    <title>
        Shape
    </title>
    <path d="M5.462 29.84l14.377-14.377a.65.65 0 0 0 0-.903L5.462.183a.65.65 0 0 0-.903 0L.183 4.558a.65.65 0 0 0 0 .903l9.586 9.55-9.586 9.55a.65.65 0 0 0 0 .903l4.376 4.375c.139.105.278.174.451.174.174.001.313-.067.452-.173z" fill-rule="evenodd"/>
</symbol><symbol id="arrow-up-right2" viewBox="0 0 32 32">
    <path d="M7.414 27.414L24 10.828V18a2 2 0 1 0 4 0V6a2 2 0 0 0-2-1.999V4H14a2 2 0 1 0 0 4h7.172L4.586 24.586C4.195 24.976 4 25.488 4 26s.195 1.024.586 1.414a2 2 0 0 0 2.828 0z"/>
</symbol><symbol id="codepen" viewBox="0 0 32 32">
    <path d="M29.555 11.501l-14-9.333a1 1 0 0 0-1.109 0l-14 9.333a1 1 0 0 0-.445.832v9.333a1 1 0 0 0 .445.832l14 9.333a.998.998 0 0 0 1.11 0l14-9.333a1 1 0 0 0 .445-.832v-9.333a1 1 0 0 0-.445-.832zM15 20.465L9.803 17 15 13.535 20.197 17 15 20.465zm1-8.667v-6.93l11.197 7.465L22 15.798l-6-4zm-2 0l-6 4-5.197-3.465L14 4.868v6.93zM6.197 17L2 19.798v-5.596L6.197 17zM8 18.202l6 4v6.93L2.803 21.667 8 18.202zm8 4l6-4 5.197 3.465L16 29.132v-6.93zM23.803 17L28 14.202v5.596L23.803 17z"/>
</symbol><symbol id="flickr3" viewBox="0 0 32 32">
    <path d="M29 0H3C1.35 0 0 1.35 0 3v26c0 1.65 1.35 3 3 3h26c1.65 0 3-1.35 3-3V3c0-1.65-1.35-3-3-3zM9 21c-2.763 0-5-2.238-5-5s2.237-5 5-5 5 2.238 5 5-2.238 5-5 5zm14 0c-2.762 0-5-2.238-5-5s2.238-5 5-5 5 2.238 5 5-2.238 5-5 5z"/>
</symbol><symbol id="github" viewBox="0 0 32 32">
    <path d="M16 .395c-8.836 0-16 7.163-16 16 0 7.069 4.585 13.067 10.942 15.182.8.148 1.094-.347 1.094-.77 0-.381-.015-1.642-.022-2.979-4.452.968-5.391-1.888-5.391-1.888-.728-1.849-1.776-2.341-1.776-2.341-1.452-.993.11-.973.11-.973 1.606.113 2.452 1.649 2.452 1.649 1.427 2.446 3.743 1.739 4.656 1.33.143-1.034.558-1.74 1.016-2.14-3.554-.404-7.29-1.777-7.29-7.907 0-1.747.625-3.174 1.649-4.295-.166-.403-.714-2.03.155-4.234 0 0 1.344-.43 4.401 1.64a15.353 15.353 0 0 1 4.005-.539c1.359.006 2.729.184 4.008.539 3.054-2.07 4.395-1.64 4.395-1.64.871 2.204.323 3.831.157 4.234 1.026 1.12 1.647 2.548 1.647 4.295 0 6.145-3.743 7.498-7.306 7.895.574.497 1.085 1.47 1.085 2.963 0 2.141-.019 3.864-.019 4.391 0 .426.288.925 1.099.768C27.421 29.457 32 23.462 32 16.395c0-8.837-7.164-16-16-16z"/>
</symbol><symbol id="image" viewBox="0 0 32 32">
    <path d="M29.996 4l.004.004v23.993l-.004.004H2.003l-.004-.004V4.004L2.003 4h27.993zM30 2H2C.9 2 0 2.9 0 4v24c0 1.1.9 2 2 2h28c1.1 0 2-.9 2-2V4c0-1.1-.9-2-2-2z"/>
    <path d="M26 9a3 3 0 1 1-6 0 3 3 0 0 1 6 0zM28 26H4v-4l7-12 8 10h2l7-6z"/>
</symbol><symbol id="instagram" viewBox="0 0 32 32">
    <path d="M16 2.881c4.275 0 4.781.019 6.462.094 1.563.069 2.406.331 2.969.55a4.952 4.952 0 0 1 1.837 1.194 5.015 5.015 0 0 1 1.2 1.838c.219.563.481 1.412.55 2.969.075 1.688.094 2.194.094 6.463s-.019 4.781-.094 6.463c-.069 1.563-.331 2.406-.55 2.969a4.94 4.94 0 0 1-1.194 1.837 5.02 5.02 0 0 1-1.837 1.2c-.563.219-1.413.481-2.969.55-1.688.075-2.194.094-6.463.094s-4.781-.019-6.463-.094c-1.563-.069-2.406-.331-2.969-.55a4.952 4.952 0 0 1-1.838-1.194 5.02 5.02 0 0 1-1.2-1.837c-.219-.563-.481-1.413-.55-2.969-.075-1.688-.094-2.194-.094-6.463s.019-4.781.094-6.463c.069-1.563.331-2.406.55-2.969a4.964 4.964 0 0 1 1.194-1.838 5.015 5.015 0 0 1 1.838-1.2c.563-.219 1.412-.481 2.969-.55 1.681-.075 2.188-.094 6.463-.094zM16 0c-4.344 0-4.887.019-6.594.094-1.7.075-2.869.35-3.881.744-1.056.412-1.95.956-2.837 1.85a7.833 7.833 0 0 0-1.85 2.831C.444 6.538.169 7.7.094 9.4.019 11.113 0 11.656 0 16s.019 4.887.094 6.594c.075 1.7.35 2.869.744 3.881.413 1.056.956 1.95 1.85 2.837a7.82 7.82 0 0 0 2.831 1.844c1.019.394 2.181.669 3.881.744 1.706.075 2.25.094 6.594.094s4.888-.019 6.594-.094c1.7-.075 2.869-.35 3.881-.744 1.05-.406 1.944-.956 2.831-1.844s1.438-1.781 1.844-2.831c.394-1.019.669-2.181.744-3.881.075-1.706.094-2.25.094-6.594s-.019-4.887-.094-6.594c-.075-1.7-.35-2.869-.744-3.881a7.506 7.506 0 0 0-1.831-2.844A7.82 7.82 0 0 0 26.482.843C25.463.449 24.301.174 22.601.099c-1.712-.081-2.256-.1-6.6-.1z"/>
    <path d="M16 7.781c-4.537 0-8.219 3.681-8.219 8.219s3.681 8.219 8.219 8.219 8.219-3.681 8.219-8.219A8.221 8.221 0 0 0 16 7.781zm0 13.55a5.331 5.331 0 1 1 0-10.663 5.331 5.331 0 0 1 0 10.663zM26.462 7.456a1.919 1.919 0 1 1-3.838 0 1.919 1.919 0 0 1 3.838 0z"/>
</symbol><symbol id="link" viewBox="0 0 32 32">
    <title>
        link
    </title>
    <g fill-rule="evenodd">
        <path d="M13.757 19.868a1.62 1.62 0 0 1-1.149-.476c-2.973-2.973-2.973-7.81 0-10.783l6-6A7.575 7.575 0 0 1 24 .376c2.037 0 3.951.793 5.392 2.233 2.973 2.973 2.973 7.81 0 10.783l-2.743 2.743a1.624 1.624 0 1 1-2.298-2.298l2.743-2.743a4.38 4.38 0 0 0 0-6.187A4.347 4.347 0 0 0 24 3.626a4.349 4.349 0 0 0-3.094 1.281l-6 6a4.38 4.38 0 0 0 0 6.187 1.624 1.624 0 0 1-1.149 2.774z"/>
        <path d="M8 31.625a7.575 7.575 0 0 1-5.392-2.233c-2.973-2.973-2.973-7.81 0-10.783l2.743-2.743a1.624 1.624 0 1 1 2.298 2.298l-2.743 2.743a4.38 4.38 0 0 0 0 6.187A4.347 4.347 0 0 0 8 28.375a4.349 4.349 0 0 0 3.094-1.281l6-6a4.38 4.38 0 0 0 0-6.187 1.624 1.624 0 1 1 2.298-2.298c2.973 2.973 2.973 7.81 0 10.783l-6 6A7.575 7.575 0 0 1 8 31.625z"/>
    </g>
</symbol><symbol id="linkedin" viewBox="0 0 32 32">
    <path d="M29 0H3C1.35 0 0 1.35 0 3v26c0 1.65 1.35 3 3 3h26c1.65 0 3-1.35 3-3V3c0-1.65-1.35-3-3-3zM12 26H8V12h4v14zm-2-16c-1.106 0-2-.894-2-2s.894-2 2-2c1.106 0 2 .894 2 2s-.894 2-2 2zm16 16h-4v-8c0-1.106-.894-2-2-2s-2 .894-2 2v8h-4V12h4v2.481C18.825 13.35 20.087 12 21.5 12c2.488 0 4.5 2.238 4.5 5v9z"/>
</symbol><symbol id="logo" viewBox="0 0 96 96">
    <title>
        icons
    </title>
    <path d="M53.904 48.749l15.902 15.877c3.514 3.508 12.443 3.679 19.61-2.634 7.07-6.527 7.995-17.357 2.136-24.986-8.46-10.6-26.179-4.159-27.396 0l5.19 5.247c6.174-5.812 10.436-1.301 10.436-1.301 2.136 1.504 1.954 6.398-.363 8.83-4.978 5.332-12.112-2.9-12.112-2.9l-8.652-8.639-.013.014-10.219-10.155s-8.245-7.123-2.905-12.093c2.435-2.314 7.338-2.495 8.844-.362 0 0 4.55 4.265-1.25 10.376l5.223 5.172c4.165-1.216 10.616-18.907 0-27.353-7.641-5.85-18.488-4.926-25.025 2.133-6.313 7.155-6.142 16.08-2.628 19.578l15.346 15.33-5.277 5.27L26.036 31.46c-3.524-3.508-12.763-3.37-19.93 2.933C-.698 40.387-2.3 51.925 3.778 59.539c8.459 10.6 26.103 4.266 27.32.107l-5.233-5.204c-6.12 5.79-10.413 1.269-10.413 1.269-2.137-1.504-1.656-6.676.662-9.14 4.977-5.331 12.41 2.603 12.41 2.603l10.788 10.77.027-.026 7.45 7.438s7.946 7.422 2.606 12.39c-2.467 2.315-7.647 2.795-9.153.662 0 0-4.529-4.265 1.26-10.323L36.29 64.86c-4.166 1.216-10.51 18.833.107 27.278 7.626 6.047 19.225 4.447 25.185-2.356 6.312-7.156 6.462-16.38 2.948-19.888L48.628 54.017l5.276-5.268z" fill-rule="evenodd"/>
</symbol><symbol id="magic-wand" viewBox="0 0 32 32">
    <path d="M8 6L4 2H2v2l4 4zm2-6h2v4h-2zm8 10h4v2h-4zm2-6V2h-2l-4 4 2 2zM0 10h4v2H0zm10 8h2v4h-2zm-8 0v2h2l4-4-2-2zm29.563 9.563L11.684 7.684a1.505 1.505 0 0 0-2.121 0L7.684 9.563a1.505 1.505 0 0 0 0 2.121l19.879 19.879a1.505 1.505 0 0 0 2.121 0l1.879-1.879a1.505 1.505 0 0 0 0-2.121zM15 17l-6-6 2-2 6 6-2 2z"/>
</symbol><symbol id="pencil2" viewBox="0 0 32 32">
    <path d="M12 20l4-2L30 4l-2-2-14 14-2 4zm-2.959 7.097c-.989-2.085-2.052-3.149-4.137-4.137l3.097-8.525 4-2.435 12-12h-6l-12 12-6 20 20-6 12-12V8l-12 12-2.435 4z"/>
</symbol><symbol id="search" viewBox="0 0 32 32">
    <path d="M31.008 27.231l-7.58-6.447c-.784-.705-1.622-1.029-2.299-.998a11.954 11.954 0 0 0 2.87-7.787c0-6.627-5.373-12-12-12s-12 5.373-12 12 5.373 12 12 12c2.972 0 5.691-1.081 7.787-2.87-.031.677.293 1.515.998 2.299l6.447 7.58c1.104 1.226 2.907 1.33 4.007.23s.997-2.903-.23-4.007zM12 20a8 8 0 1 1 0-16 8 8 0 0 1 0 16z"/>
</symbol><symbol id="twitter" viewBox="0 0 32 32">
    <path d="M32 7.075a12.941 12.941 0 0 1-3.769 1.031 6.601 6.601 0 0 0 2.887-3.631 13.21 13.21 0 0 1-4.169 1.594A6.565 6.565 0 0 0 22.155 4a6.563 6.563 0 0 0-6.563 6.563c0 .512.056 1.012.169 1.494A18.635 18.635 0 0 1 2.23 5.195a6.56 6.56 0 0 0-.887 3.3 6.557 6.557 0 0 0 2.919 5.463 6.565 6.565 0 0 1-2.975-.819v.081a6.565 6.565 0 0 0 5.269 6.437 6.574 6.574 0 0 1-2.968.112 6.588 6.588 0 0 0 6.131 4.563 13.17 13.17 0 0 1-9.725 2.719 18.568 18.568 0 0 0 10.069 2.95c12.075 0 18.681-10.006 18.681-18.681 0-.287-.006-.569-.019-.85A13.216 13.216 0 0 0 32 7.076z"/>
</symbol></svg>
